<svg xmlns="http://www.w3.org/2000/svg" fill="none" viewBox="0 0 162 191">
  <path fill="#02163D" d="M53.921 119.286v67.311c-2.233.609-5.787 1.219-10.66 1.828s-9.645.913-14.315.913-8.833-.406-12.487-1.218c-3.452-.609-6.396-1.827-8.833-3.655-2.437-1.827-4.264-4.365-5.482-7.614-1.219-3.249-1.828-7.513-1.828-12.792V3.243c2.234-.406 5.787-.914 10.66-1.523C15.85.908 20.52.502 24.986.502c4.67 0 8.732.406 12.184 1.218 3.655.61 6.7 1.828 9.137 3.655 2.437 1.828 4.264 4.366 5.482 7.614 1.219 3.25 1.828 7.513 1.828 12.793v48.427l63.351-72.793c13.808 0 23.656 2.64 29.544 7.919 6.092 5.076 9.137 11.167 9.137 18.274 0 5.28-1.319 10.254-3.959 14.924s-6.904 9.95-12.792 15.838l-38.072 38.072a5872.412 5872.412 0 0 0 15.838 17.665 1222.638 1222.638 0 0 1 16.447 17.97 1044.093 1044.093 0 0 1 15.533 16.447c5.076 5.28 9.442 9.848 13.097 13.706 0 4.467-.812 8.427-2.437 11.879-1.624 3.452-3.858 6.396-6.7 8.832-2.64 2.437-5.686 4.264-9.138 5.483-3.451 1.218-7.106 1.827-10.964 1.827-8.325 0-15.127-2.03-20.407-6.091-5.279-4.264-10.355-9.239-15.228-14.924L53.92 119.286Z"/>
</svg>
