<svg width="77" height="21" viewBox="0 0 77 21" fill="none" xmlns="http://www.w3.org/2000/svg">
<path d="M6.0871 12.9018V19.4306C5.87046 19.4897 5.5258 19.5488 5.05313 19.6079C4.58046 19.667 4.11763 19.6965 3.66465 19.6965C3.21167 19.6965 2.80793 19.6571 2.45343 19.5784C2.11862 19.5193 1.83304 19.4011 1.59671 19.2239C1.36037 19.0466 1.18312 18.8004 1.06495 18.4853C0.946779 18.1702 0.887695 17.7566 0.887695 17.2445V1.6463C1.10434 1.60691 1.449 1.55767 1.92167 1.49859C2.39434 1.41981 2.84732 1.38042 3.28061 1.38042C3.73358 1.38042 4.12748 1.41981 4.46229 1.49859C4.81679 1.55767 5.11222 1.67584 5.34855 1.85309C5.58489 2.03035 5.76214 2.27653 5.88031 2.59165C5.99848 2.90676 6.05756 3.32035 6.05756 3.83242V8.52961L12.2023 1.46905C13.5416 1.46905 14.4968 1.72508 15.0679 2.23714C15.6587 2.72951 15.9542 3.32035 15.9542 4.00967C15.9542 4.52173 15.8262 5.00425 15.5701 5.45723C15.3141 5.91021 14.9005 6.42227 14.3294 6.99342L10.6366 10.6862C11.129 11.2376 11.641 11.8088 12.1728 12.3996C12.7242 12.9905 13.256 13.5715 13.7681 14.1426C14.2998 14.6941 14.802 15.2258 15.2747 15.7379C15.7671 16.2499 16.1905 16.6931 16.545 17.0673C16.545 17.5006 16.4662 17.8846 16.3087 18.2194C16.1511 18.5542 15.9345 18.8398 15.6587 19.0761C15.4027 19.3125 15.1073 19.4897 14.7725 19.6079C14.4377 19.7261 14.0832 19.7851 13.709 19.7851C12.9015 19.7851 12.2417 19.5882 11.7296 19.1943C11.2176 18.7807 10.7252 18.2982 10.2525 17.7467L6.0871 12.9018Z" fill="white"/>
<path d="M17.7134 5.39815C17.9103 5.33906 18.2156 5.27998 18.6292 5.22089C19.0625 5.16181 19.5056 5.13227 19.9586 5.13227C20.3919 5.13227 20.7759 5.16181 21.1107 5.22089C21.4652 5.27998 21.7607 5.39815 21.997 5.5754C22.2333 5.75265 22.4106 5.99884 22.5288 6.31395C22.6666 6.60937 22.7355 7.00327 22.7355 7.49564V13.8472C22.7355 14.6547 22.9325 15.2357 23.3264 15.5902C23.7203 15.925 24.2914 16.0924 25.0398 16.0924C25.4928 16.0924 25.8572 16.053 26.1329 15.9742C26.4283 15.8954 26.6548 15.8167 26.8124 15.7379V5.39815C27.0093 5.33906 27.3146 5.27998 27.7282 5.22089C28.1614 5.16181 28.6046 5.13227 29.0576 5.13227C29.4908 5.13227 29.8749 5.16181 30.2097 5.22089C30.5642 5.27998 30.8596 5.39815 31.096 5.5754C31.3323 5.75265 31.5095 5.99884 31.6277 6.31395C31.7656 6.60937 31.8345 7.00327 31.8345 7.49564V16.4764C31.8345 17.4612 31.4209 18.1997 30.5937 18.6921C29.9044 19.1254 29.0772 19.4503 28.1122 19.667C27.1669 19.9033 26.1329 20.0215 25.0103 20.0215C23.9468 20.0215 22.962 19.9033 22.0561 19.667C21.1698 19.4306 20.4017 19.0663 19.7518 18.5739C19.1019 18.0816 18.5996 17.4513 18.2451 16.6832C17.8906 15.8954 17.7134 14.9501 17.7134 13.8472V5.39815Z" fill="white"/>
<path d="M38.9644 14.6153C38.9644 15.1273 39.122 15.4917 39.4371 15.7083C39.7719 15.925 40.2347 16.0333 40.8255 16.0333C41.121 16.0333 41.4262 16.0136 41.7414 15.9742C42.0565 15.9151 42.3322 15.8462 42.5685 15.7674C42.7458 15.9841 42.8935 16.2302 43.0117 16.506C43.1495 16.762 43.2185 17.0771 43.2185 17.4513C43.2185 18.1997 42.9329 18.8103 42.3617 19.2829C41.8103 19.7556 40.8256 19.9919 39.4075 19.9919C37.6744 19.9919 36.3351 19.598 35.3898 18.8103C34.4641 18.0225 34.0013 16.7423 34.0013 14.9698V2.32577C34.218 2.26668 34.5232 2.2076 34.9171 2.14851C35.3307 2.06974 35.764 2.03035 36.217 2.03035C37.0835 2.03035 37.7532 2.1879 38.2258 2.50302C38.7182 2.79844 38.9644 3.43852 38.9644 4.42326V6.31395H42.8344C42.9526 6.53059 43.0609 6.80632 43.1594 7.14113C43.2775 7.45625 43.3366 7.81075 43.3366 8.20465C43.3366 8.89396 43.1791 9.39618 42.864 9.71129C42.5685 10.0067 42.1648 10.1544 41.6527 10.1544H38.9644V14.6153Z" fill="white"/>
<path d="M49.8272 14.6153C49.8272 15.1273 49.9848 15.4917 50.2999 15.7083C50.6347 15.925 51.0975 16.0333 51.6884 16.0333C51.9838 16.0333 52.289 16.0136 52.6042 15.9742C52.9193 15.9151 53.195 15.8462 53.4313 15.7674C53.6086 15.9841 53.7563 16.2302 53.8745 16.506C54.0123 16.762 54.0813 17.0771 54.0813 17.4513C54.0813 18.1997 53.7957 18.8103 53.2245 19.2829C52.6731 19.7556 51.6884 19.9919 50.2703 19.9919C48.5372 19.9919 47.198 19.598 46.2526 18.8103C45.327 18.0225 44.8641 16.7423 44.8641 14.9698V2.32577C45.0808 2.26668 45.386 2.2076 45.7799 2.14851C46.1935 2.06974 46.6268 2.03035 47.0798 2.03035C47.9464 2.03035 48.616 2.1879 49.0886 2.50302C49.581 2.79844 49.8272 3.43852 49.8272 4.42326V6.31395H53.6972C53.8154 6.53059 53.9237 6.80632 54.0222 7.14113C54.1404 7.45625 54.1994 7.81075 54.1994 8.20465C54.1994 8.89396 54.0419 9.39618 53.7268 9.71129C53.4313 10.0067 53.0276 10.1544 52.5155 10.1544H49.8272V14.6153Z" fill="white"/>
<path d="M60.7786 19.5193C60.562 19.5587 60.237 19.6079 59.8037 19.667C59.3902 19.7458 58.9667 19.7851 58.5334 19.7851C58.1002 19.7851 57.7063 19.7556 57.3518 19.6965C57.0169 19.6374 56.7314 19.5193 56.495 19.342C56.2587 19.1648 56.0716 18.9284 55.9337 18.633C55.8156 18.3179 55.7565 17.9142 55.7565 17.4218V0.287364C55.9731 0.247974 56.2882 0.198737 56.7018 0.139653C57.1351 0.0608742 57.5684 0.0214844 58.0017 0.0214844C58.435 0.0214844 58.819 0.0510265 59.1538 0.11011C59.5083 0.169195 59.8037 0.287363 60.0401 0.464616C60.2764 0.641868 60.4537 0.888052 60.5718 1.20317C60.7097 1.49859 60.7786 1.89248 60.7786 2.38485V19.5193Z" fill="white"/>
<path d="M70.5745 20.0215C69.4125 20.0215 68.3293 19.8639 67.3248 19.5488C66.3401 19.214 65.4735 18.7216 64.7251 18.0717C63.9964 17.4218 63.4154 16.6045 62.9821 15.6197C62.5686 14.635 62.3618 13.4828 62.3618 12.1633C62.3618 10.8634 62.5686 9.75068 62.9821 8.82503C63.4154 7.87968 63.9767 7.11159 64.666 6.52075C65.3554 5.91021 66.1431 5.46708 67.0294 5.19135C67.9157 4.89593 68.8216 4.74822 69.7473 4.74822C70.7911 4.74822 71.7365 4.90578 72.5833 5.22089C73.4499 5.53601 74.1884 5.96929 74.799 6.52075C75.4292 7.0722 75.9117 7.73197 76.2465 8.50007C76.6011 9.26816 76.7783 10.1052 76.7783 11.0111C76.7783 11.6808 76.5912 12.1928 76.217 12.5473C75.8428 12.9018 75.3209 13.1283 74.6513 13.2268L67.3544 14.3199C67.571 14.9698 68.0141 15.4622 68.6838 15.797C69.3534 16.1121 70.1215 16.2696 70.9881 16.2696C71.7955 16.2696 72.5538 16.1712 73.2628 15.9742C73.9915 15.7576 74.5823 15.5114 75.0353 15.2357C75.3504 15.4326 75.6163 15.7083 75.833 16.0628C76.0496 16.4174 76.1579 16.7915 76.1579 17.1854C76.1579 18.0717 75.7443 18.7315 74.9172 19.1648C74.2869 19.4996 73.5779 19.7261 72.7901 19.8442C72.0023 19.9624 71.2638 20.0215 70.5745 20.0215ZM69.7473 8.41144C69.2746 8.41144 68.861 8.49022 68.5065 8.64778C68.1717 8.80533 67.896 9.01213 67.6793 9.26816C67.4627 9.5045 67.2953 9.78022 67.1771 10.0953C67.0786 10.3908 67.0196 10.696 66.9999 11.0111L72.0516 10.184C71.9925 9.79007 71.7758 9.39618 71.4016 9.00228C71.0274 8.60839 70.476 8.41144 69.7473 8.41144Z" fill="white"/>
</svg>
